<?xml version="1.0" encoding="utf-8"?>
<!-- Generator: Adobe Illustrator 15.0.0, SVG Export Plug-In . SVG Version: 6.00 Build 0)  -->
<!DOCTYPE svg PUBLIC "-//W3C//DTD SVG 1.1//EN" "http://www.w3.org/Graphics/SVG/1.1/DTD/svg11.dtd">
<svg version="1.1" id="Layer_1" xmlns="http://www.w3.org/2000/svg" xmlns:xlink="http://www.w3.org/1999/xlink" x="0px" y="0px"
	 width="35px" height="35px" viewBox="0 0 35 35" enable-background="new 0 0 35 35" xml:space="preserve">
<g>
	<g>
		<g>
			<g>
				<g>
					<g>
						<path fill="#00AEEF" d="M28.171,15.808c0.048,0.139-0.092,0.282-0.168,0.238c0.224,0.262,0.013,0.292,0.378,0.292
							c0.193,0.175-0.039,0.395-0.201,0.193c0.088,0.172,0.176,0.347,0.252,0.527c0.016-0.109,0.033-0.219,0.043-0.33
							c0.314,0.076-0.074,0.526,0.283,0.628l-0.049-0.607l0.104,0.025c-0.119-0.133-0.094-0.403-0.06-0.502
							c0.052,0.01,0.131-0.008,0.147,0.1c-0.063-0.745-0.541-0.144-0.729-0.712C28.186,15.695,28.189,15.741,28.171,15.808z"/>
						<path fill="#00AEEF" d="M28.785,15.062l-0.43-0.168c0.002-0.147-0.008-0.292-0.016-0.44c-0.128,0.03-0.314-0.234-0.367-0.001
							c0.03,0.033,0.09,0.099,0.096,0.165c-0.28,0.029-0.291-0.487-0.531-0.284c0.17,0.281,0.115,0.346,0.395,0.477
							c0.045,0.297,0.032,0.521-0.048,0.676c0.058,0.077,0.229,0.058,0.285,0.164l-0.024-0.074l0.418-0.087
							c-0.105-0.08-0.078-0.179-0.11-0.283c0.196,0.129,0.388,0.268,0.583,0.415c0.369-0.235,0.037-0.713,0.145-0.954
							C28.889,15.002,28.96,14.512,28.785,15.062z"/>
						<path fill="#00AEEF" d="M28.169,15.649l0.003,0.011L28.169,15.649z"/>
						<path fill="#00AEEF" d="M12.021,21.736c0.051,0.06,0.146,0.019,0.193-0.002c-0.169-0.229-0.33-0.467-0.47-0.715
							c-0.085,0.076-0.078,0.367-0.22,0.254c-0.072,0.133,0.148,0.275,0.292,0.221l-0.179,0.038c0.291,0.053,0.018,0.409-0.167,0.37
							l0.012,0.014c0.349,0.004,0.681-0.006,1.016-0.042C12.417,21.689,12.173,21.934,12.021,21.736z"/>
						<path fill="#00AEEF" d="M26.148,18.7c0.017,0.124,0.055,0.146,0.098,0.141C26.223,18.792,26.193,18.745,26.148,18.7z"/>
						<path fill="#00AEEF" d="M12.729,21.848l0.306-0.047C12.94,21.799,12.829,21.818,12.729,21.848z"/>
						<path fill="#00AEEF" d="M8.621,22.934c-0.012,0.008-0.024,0.012-0.038,0.025l0.173,0.031l-0.001-0.004L8.621,22.934z"/>
						<path fill="#00AEEF" d="M16.051,23.068H16.1C16.083,23.063,16.067,23.064,16.051,23.068z"/>
						<path fill="#00AEEF" d="M5.9,20.038c0.133,0.19,0.256,0.381,0.398,0.562c-0.139-0.051-0.021,0.236-0.192,0.145
							c0.032,0.043,0.141,0.25,0.183,0.173l-0.043-0.123c0.429,0.22,0.496-0.004,0.917,0.411c0.09-0.372-0.13-0.445-0.33-0.571
							c-0.04-0.05-0.063-0.095-0.09-0.14c-0.206-0.119-0.4-0.249-0.599-0.385L5.9,20.038z"/>
						<path fill="#00AEEF" d="M24.616,25.073l0.014,0.024C24.627,25.087,24.622,25.08,24.616,25.073z"/>
						<path fill="#00AEEF" d="M24.684,25.199l-0.054-0.102C24.645,25.159,24.594,25.268,24.684,25.199z"/>
						<path fill="#00AEEF" d="M12.516,21.941c0.054-0.037,0.129-0.068,0.213-0.094l-0.23,0.025
							C12.507,21.891,12.511,21.918,12.516,21.941z"/>
						<path fill="#00AEEF" d="M11.727,22.172l-0.243-0.256l-0.222-0.01C11.39,21.986,11.526,22.086,11.727,22.172z"/>
						<path fill="#00AEEF" d="M15.756,22.721c0.506,0.17-0.289,0.32-0.104,0.514c0.164,0.023,0.291-0.146,0.398-0.166
							c-0.458-0.004,0.285-0.569-0.123-0.637c0.198-0.293,0.401-0.248,0.487-0.111c0.023,0.371-0.206,0.189-0.365,0.482
							c0.176,0.01,0.169-0.056,0.299-0.214c0.221,0.161,0.592-0.249,0.624,0.237c0.192-0.029,0.214-0.198,0.342-0.355
							c0.082-0.354-0.205-0.232-0.194-0.529c0.004,0.033,0.013,0.099-0.005,0.146c-0.038-0.036-0.077-0.066-0.112-0.105
							c0.092,0.158-0.108,0.351-0.189,0.354c-0.053-0.007-0.162-0.019-0.116-0.112l0.099-0.053c-0.06-0.136-0.297,0.182-0.336-0.04
							c0.023-0.077,0.074-0.099,0.097-0.146c-0.195,0.188-0.303,0.139-0.543,0.219l0.243-0.286c-0.29,0.313-0.563,0.048-0.642-0.247
							c-0.011,0.064,0.008,0.124-0.052,0.171c-0.164,0.001-0.113-0.264,0.042-0.39c-0.284,0.183-0.235-0.471-0.606-0.278
							c-0.602,0.296-1.262,0.509-1.964,0.63c0.062,0,0.118,0.008,0.159,0.031c-0.172,0.285-0.102,0.309-0.447,0.367
							c0.244,0.027,0.39-0.201,0.575-0.021c-0.182,0.039-0.472,0.27-0.308,0.486c0.715,0.245,1.6-0.229,2.24-0.372
							c-0.113,0.22,0.264,0.354,0.413,0.485c-0.179,0.207-0.348,0.203-0.512,0.177c0.079,0.062,0.228,0.146,0.337,0.212
							L15.756,22.721z"/>
						<path fill="#00AEEF" d="M14.205,22.749c-0.001,0.026,0.005,0.045,0.011,0.063C14.222,22.792,14.219,22.771,14.205,22.749z"/>
						<polygon fill="#00AEEF" points="15.117,22.925 15.103,22.945 15.155,22.955 						"/>
						<path fill="#00AEEF" d="M12.19,22.417c-0.082,0.015-0.117,0.002-0.197,0.013c0.035,0.006,0.069,0.021,0.107,0.029
							C12.145,22.461,12.179,22.45,12.19,22.417z"/>
						<path fill="#00AEEF" d="M12.435,22.037l0.091-0.047c-0.002-0.021-0.007-0.031-0.01-0.049
							C12.471,21.973,12.438,22.005,12.435,22.037z"/>
						<path fill="#00AEEF" d="M17.482,25.439l0.074-0.047C17.515,25.395,17.495,25.414,17.482,25.439z"/>
						<path fill="#00AEEF" d="M16.162,23.331c-0.194-0.04-0.145,0.34-0.417,0.235l0.072,0.053c-0.257,0.074-0.573-0.154-0.802-0.26
							c0.092-0.114-0.048-0.23,0.089-0.414c-0.17-0.031-0.333-0.075-0.534,0.07c-0.048-0.117-0.295-0.047-0.353-0.203
							c-0.032,0.146-0.44,0.254-0.058,0.32c-0.034-0.001-0.038,0.034-0.071,0.033c0.075,0.292,0.337,0.066,0.496,0.167
							c0.027,0.178-0.274,0.082-0.21,0.187c0.265,0.028,0.603,0.525,0.813,0.062c0.169,0.042,0.145,0.149,0.154,0.257
							c0.443-0.378,0.884,0.578,1.087-0.093c-0.1,0.003-0.24-0.056-0.421,0.036L16.162,23.331z"/>
						<path fill="#00AEEF" d="M12.488,22.7c0.008,0.013,0.024,0.024,0.028,0.039C12.509,22.727,12.499,22.712,12.488,22.7z"/>
						<path fill="#00AEEF" d="M12.757,19.406l0.449-0.094c0.249,0.32,0.194,0.502,0.387,0.797c-0.04,0.055-0.095,0.037-0.123,0.029
							c0.168,0.186,0.307,0.553,0.586,0.561c0.04,0.064,0.073,0.311-0.081,0.34c0.057,0.004,0.115,0.012,0.133,0.057
							c-0.112,0.117-0.1-0.047-0.202,0.039c0.016,0.035,0.001,0.067,0.045,0.039c-0.147,0.044-0.364,0.42-0.564,0.176
							c0.216-0.334,0.175,0.135,0.447-0.191c-0.062-0.075-0.179,0.037-0.224,0.063c-0.075-0.104,0.012-0.169,0.089-0.224
							c-0.129,0.041-0.088-0.188-0.282-0.126c-0.168-0.182,0.263-0.174,0.169-0.297l-0.403,0.164l-0.079-0.271
							c-0.326-0.275-0.599,0.438-1.051,0.11c0.229-0.048,0.457-0.392,0.454-0.623c0.067,0.116,0.418,0.198,0.388,0.397
							c0.177-0.358,0.19,0.25,0.457-0.047c-0.204,0-0.324-0.148-0.297-0.32l0.056,0.023c-0.028-0.146-0.476-0.064-0.41-0.331
							c-0.05-0.093,0.067-0.118,0.166-0.14C12.777,19.482,12.669,19.438,12.757,19.406z M12.921,19.58l0.017,0.141
							C12.989,19.662,12.964,19.618,12.921,19.58z"/>
						<path fill="#00AEEF" d="M27.425,11.792l0.009,0.084C27.441,11.852,27.436,11.823,27.425,11.792z"/>
						<path fill="#00AEEF" d="M8.682,12.087l0.086-0.122C8.727,12.008,8.701,12.048,8.682,12.087z"/>
						<path fill="#00AEEF" d="M9.754,8.44l0.111-0.242C9.799,8.27,9.77,8.351,9.754,8.44z"/>
						<polygon fill="#00AEEF" points="26.421,10.36 26.418,10.352 26.379,10.341 						"/>
						<path fill="#00AEEF" d="M16.598,6.161c0.039,0.031,0.082,0.058,0.137,0.077C16.724,6.197,16.673,6.172,16.598,6.161z"/>
						<polygon fill="#00AEEF" points="9.734,8.484 9.75,8.48 9.754,8.44 						"/>
						<path fill="#00AEEF" d="M6.907,12.976c-0.001,0.038-0.003,0.072,0,0.114C6.917,13.041,6.914,13.006,6.907,12.976z"/>
						<path fill="#00AEEF" d="M8.104,13.213c-0.003,0.037-0.003,0.072,0.005,0.103L8.104,13.213z"/>
						<path fill="#00AEEF" d="M6.509,18.342l0.078,0.21C6.572,18.447,6.543,18.386,6.509,18.342z"/>
						<path fill="#00AEEF" d="M7.653,13.62l0.044,0.049C7.694,13.638,7.675,13.616,7.653,13.62z"/>
						<polygon fill="#00AEEF" points="26.859,13.428 26.854,13.419 26.809,13.436 						"/>
						<path fill="#00AEEF" d="M27.602,13.586l0.092,0.14C27.673,13.668,27.639,13.619,27.602,13.586z"/>
						<path fill="#00AEEF" d="M19.523,6.805c0.045,0.067,0.153,0.155,0.088,0.218C19.721,6.947,19.745,6.734,19.523,6.805z"/>
						<path fill="#00AEEF" d="M24.169,13.985c0.06-0.011,0.11-0.011,0.161-0.009C24.252,13.964,24.188,13.955,24.169,13.985z"/>
						<path fill="#00AEEF" d="M24.33,13.976l0.118,0.014C24.412,13.981,24.372,13.977,24.33,13.976z"/>
						<path fill="#00AEEF" d="M18.219,10.242c-0.009-0.028-0.021-0.052-0.041-0.059C18.184,10.24,18.198,10.252,18.219,10.242z"/>
						<path fill="#00AEEF" d="M27.678,13.873c0.104-0.014,0.547,0.609,0.397,0.01c0.303-0.081,0.272,0.332,0.387,0.471
							c0.036-0.139,0.21,0.002,0.308-0.065c-0.061-0.072-0.172-0.144-0.196-0.283c0.114-0.107,0.28,0.068,0.272,0.249
							c0.1-0.251,0.313,0.191,0.353-0.136c-0.294-0.59-0.572-0.986-1.173-1.191c0.216,0.284,0.449,0.626,0.42,0.942l-0.295-0.024
							c0.113-0.381-0.123-0.508-0.229-0.801c0.058,0.232,0.091,0.472,0.134,0.704c-0.111,0.385-0.223,0.19-0.361-0.021
							C27.712,13.784,27.717,13.842,27.678,13.873z"/>
						<path fill="#00AEEF" d="M25.313,14.379l-0.004,0.011c0.012,0.003,0.021,0.01,0.033,0.01L25.313,14.379z"/>
						<path fill="#00AEEF" d="M11.993,17.864l0.105,0.027C12.05,17.866,12.018,17.859,11.993,17.864z"/>
						<path fill="#00AEEF" d="M26.38,13.542L26.38,13.542C26.376,13.54,26.375,13.539,26.38,13.542z"/>
						<path fill="#00AEEF" d="M12.004,16.971l0.023,0.006L12.004,16.971z"/>
						<path fill="#00AEEF" d="M6.186,16.156c-0.013,0.002-0.025,0.002-0.038,0.008C6.161,16.203,6.175,16.186,6.186,16.156z"/>
						<path fill="#00AEEF" d="M11.979,16.968l0.025,0.002C11.996,16.969,11.987,16.967,11.979,16.968z"/>
						<path fill="#00AEEF" d="M12.938,12.388c0,0-0.045-0.021-0.096-0.033C12.854,12.379,12.882,12.392,12.938,12.388z"/>
						<path fill="#00AEEF" d="M11.98,12.922l-0.036-0.002L11.98,12.922z"/>
						<path fill="#00AEEF" d="M19.291,5.548c-0.08-0.01-0.141-0.008-0.191,0C19.157,5.559,19.221,5.563,19.291,5.548z"/>
						<path fill="#00AEEF" d="M12.028,16.977c0.028,0.01,0.057,0.025,0.091,0.047C12.083,17,12.053,16.986,12.028,16.977z"/>
						<polygon fill="#00AEEF" points="13.294,10.271 13.282,10.317 13.307,10.316 						"/>
						<path fill="#00AEEF" d="M13.914,10.109c-0.002,0.037,0.006,0.068,0.011,0.098c0.125-0.209,0.529-0.286,0.443-0.562
							c-0.063,0.036-0.486,0.071-0.511-0.105c-0.101,0.14-0.409,0.085-0.456,0.176c0.305-0.007,0.151,0.193,0.062,0.366
							c-0.178,0.015-0.103-0.21-0.248-0.18l-0.285,0.24l0.285-0.155l0.08,0.285l0.011-0.04
							C13.674,9.831,13.564,10.542,13.914,10.109z"/>
						<path fill="#00AEEF" d="M13.925,10.207c-0.02,0.03-0.031,0.065-0.034,0.102C13.929,10.279,13.93,10.245,13.925,10.207z"/>
						<path fill="#00AEEF" d="M15.952,9.806c0.021-0.016,0.043-0.036,0.069-0.065L15.952,9.806z"/>
						<path fill="#00AEEF" d="M11.163,21.668c0.063-0.051,0.067-0.386-0.117-0.275l0.073,0.264L11.163,21.668z"/>
						<path fill="#00AEEF" d="M21.665,8.896c-0.031-0.02-0.063-0.035-0.101-0.045l-0.03,0.023
							C21.543,8.912,21.623,8.901,21.665,8.896z"/>
						<path fill="#00AEEF" d="M13.894,9.403c-0.036,0.058-0.042,0.101-0.037,0.137C13.881,9.507,13.898,9.465,13.894,9.403z"/>
						<path fill="#00AEEF" d="M21.491,9.375c0.018,0.073,0.04,0.181,0.016,0.26c0.078,0.038,0.179-0.04,0.277-0.04
							C21.678,9.584,21.585,9.51,21.491,9.375z"/>
						<path fill="#00AEEF" d="M21.792,9.595h-0.008H21.792z"/>
						<path fill="#00AEEF" d="M11.181,21.864l0.08,0.042l-0.07-0.004l0.059,0.209c0.025,0.013,0.052,0.027,0.077,0.05
							c-0.013-0.007-0.038-0.002-0.061,0.006l0.018,0.067c0.274,0.014,0.646,0.225,0.816,0.225c0.172,0.05,0.321,0.15,0.388,0.241
							c-0.069-0.075-0.189-0.153-0.255-0.04c0.044,0.24-0.143,0.586,0.354,0.624l-0.163-0.15c0.232,0.003,0.455,0.003,0.679-0.013
							c-0.007,0.259-0.336,0.02-0.502,0.09c0.425,0.089,0.278,0.77,0.679,0.561c-0.129,0.207-0.347,0.563-0.108,0.701
							c0.006-0.338,0.232-0.055,0.278-0.388c0.151-0.063,0.184,0.237,0.3,0.091l-0.076,0.071c0.165,0.569,0.615,0.117,0.856,0.026
							c0.482,0.143,0.629,0.367,1.025,0.478c-0.042,0.158-0.083,0.619,0.092,0.66c0.146-0.183,0.543-0.179,0.647-0.444
							c-0.249-0.191-0.292,0.164-0.487,0.18c-0.05-0.332,0.074-0.285-0.055-0.519c0.115,0.172,0.712,0.054,0.818,0.356L16.5,25.01
							c0.228,0.223,0.179,0.934,0.733,0.578l0.249-0.146c-0.014,0.026-0.018,0.06-0.026,0.084c0.374,0.059,0.26,0.379,0.694,0.134
							c-0.032,0.019-0.012,0.051-0.047,0.067c0.248,0.164,0.49-0.162,0.662-0.242c0.125,0.228-0.012,0.233-0.074,0.41
							c0.453,0.066,0.877-0.405,1.062-0.736c0.097,0.031,0.19,0.054,0.287,0.08c-0.129,0.134-0.281,0.412-0.206,0.543
							c0.146-0.072,0.092-0.178,0.313-0.182c-0.002,0.154-0.062,0.313-0.129,0.522c0.521,0.142-0.02-0.545,0.41-0.168
							c0.146-0.036,0.168-0.272,0.133-0.452c0.104,0.053,0.211,0.107,0.317,0.155c-0.043-0.234,0.255-0.339,0.433-0.454
							c-0.016-0.104-0.24-0.169-0.281-0.061c-0.045-0.175,0.117-0.334,0.242-0.379c0.244,0.441,0.774-0.438,0.886,0.144
							c0.502-0.423,1.187-0.987,1.354-1.411c0.19,0.02,0.399-0.168,0.433,0.113c0.384-0.355,0.188-0.885,0.597-1.166
							c0.075,0.009-0.136,0.174-0.002,0.265c0.054-0.368,0.541-0.333,0.716-0.84c-0.038,0.077,0.032,0.153,0.066,0.192
							c-0.071-0.039-0.025-0.271-0.021-0.42c0.073-0.041-0.003,0.112,0.072,0.11c0.725-0.755,0.408-1.729,0.634-2.599
							c-0.062,0.257,0.213,0.439,0.341,0.479l0.076-0.266c-0.134-0.142-0.081-0.339-0.175-0.527c0.063-0.01,0.142-0.08,0.202,0.019
							c0.414-0.502-0.458-0.899-0.285-1.501c0.214,0.255,0.421,0.529,0.611,0.824l0.242-0.188c0.088,0.131,0.182,0.266,0.26,0.404
							c0.207-0.213-0.197-0.446,0.052-0.456c0.065,0.053,0.034,0.168,0.166,0.184c0.11-0.218-0.063-0.249-0.108-0.417
							c0.491,0.462,0.366,1.386,0.359,1.888c0.021,0.084-0.102-0.093-0.148-0.115c-0.027,0.197-0.205,0.272-0.191,0.535
							c0.16,0.209,0.182-0.072,0.236-0.188c0.172,0.063,0.146,0.122,0.133,0.266c-0.235-0.037-0.313,0.717-0.668,0.77
							c-0.213,0.709,0.641,0.133,0.242,0.77L27,21.71c0.014,0.476-0.12,1.069-0.455,1.444l0.055-0.09
							c-0.06-0.125-0.187-0.072-0.266-0.067c-0.301,0.226-0.243,0.694-0.602,0.687c-0.031,0.512-0.385,1.184-0.674,1.625
							c-0.334-0.188,0.28-0.662,0.25-0.973l-0.313,0.305c0.191-0.188,0.173-0.363,0.128-0.623c-0.306,0.213-0.167,0.53-0.381,0.84
							c-0.045-0.094-0.121-0.108-0.247-0.004l0.12,0.219c-0.015-0.014-0.041-0.016-0.091,0.005
							c-0.139,0.171-0.276,0.349-0.428,0.513c0.172,0.003,0.309,0.174,0.447,0.068c-0.135-0.076-0.037-0.188,0.102-0.292
							c-0.021,0.219,0.218,0.001,0.297,0.104c-0.275,0.221-0.606,0.502-0.764,0.688l-0.188-0.146
							c-0.307,0.137-0.547,0.422-0.777,0.476l0.003-0.14c-0.374,0.129-0.669,0.43-1.077,0.362c-0.222,0.371-0.578,0.728-0.795,1.069
							c-0.09,0.341-1.136-0.078-1.474,0.376c-0.031-0.024,0.251-0.267,0.366-0.397c-0.272,0.006-0.438,0.397-0.566,0.104
							c0.62,0.012-0.066-0.231,0.188-0.361c-0.272,0.045-0.557,0.141-0.686,0.256c0.457-0.048-0.123,0.444,0.332,0.256
							c-0.333,0.305-0.855,0.437-1.305,0.338c0.005-0.131-0.051-0.193-0.213-0.252l-0.138,0.188
							c-0.204-0.04,0.403-0.217-0.007-0.295c-0.45,0.318-1.237-0.288-1.516,0.264c-0.28-0.29,0.653-0.137,0.216-0.506
							c0.305-0.174,0.654,0.122,0.773-0.177c-0.274,0.063-0.071-0.263-0.238-0.284l-0.314,0.146l0.063,0.021
							c-0.537,0.219-1.306-0.087-1.923-0.252c-0.61,0.113-1.165,0.365-1.779,0.016c0.259-0.063-0.424-0.42,0.11-0.506
							c-0.194-0.285-0.547-0.277-0.623-0.171c0.214,0.181,0.062,0.086,0.231,0.261c-0.219,0.063-0.534-0.142-0.602-0.313
							c0.052,0.047,0.047,0.007,0.087-0.026c-0.22-0.271-0.222,0.046-0.461-0.039c0.064-0.223-0.401-0.362-0.5-0.597l-0.453,0.037
							c0.273-0.043-0.188-0.264-0.093-0.441c-0.265-0.049-0.598,0.004-0.805-0.302c0.181,0.03-0.111-0.347,0.049-0.494
							c-0.233-0.565-1.095-0.416-1.182-1.081c0.052-0.012,0.23,0.008,0.185-0.162c-0.12-0.08-0.227-0.283-0.316-0.396H8.76
							l-0.009-0.003c-0.044-0.055-0.089-0.078-0.134-0.055c-0.304-0.105-0.554-0.113-0.939-0.486
							c-0.203,0.139,0.076,0.486,0.237,0.609l0.289,0.02c-0.245,0.318,0.283,0.355,0.24,0.515c-0.537-0.019-0.885-0.85-1.337-1.237
							C6.923,22.8,7.223,23.5,7.604,24.025L7.58,23.708l0.181,0.282l0.051-0.408c0.125,0.288,0.322,0.482,0.473,0.718
							c-0.196-0.267,0.027-0.562,0.079-0.378c0.004,0.434,0.342,0.219,0.485,0.444c-0.07-0.136-0.179-0.298,0.007-0.276
							c0.079,0.602,0.317,0.596,0.401,1.169c0.258-0.312,0.444,0.427,0.736,0.243l-0.129-0.184c0.167,0.057,0.332,0.111,0.501,0.156
							c0.084,0.539-0.518-0.025-0.192,0.606c0.441,0.45,0.706,0.11,1.097,0.377c-0.269,0.099-0.707,0.017-1-0.257l0.106,0.246
							c-0.192,0.025-0.587-0.379-0.771-0.59c0.519,0.132-0.093-0.213-0.072-0.512c-0.199,0.129,0.032,0.32-0.345,0.19
							c0.231,0.235,0.271,0.263,0.512,0.618c-0.558-0.715-1.178-0.04-1.565-0.818c0.32,0.234,0.179-0.314,0.245-0.416
							c-0.134-0.117-0.381-0.38-0.516-0.467l-0.199,0.303c-0.402-0.329,0.108-0.845-0.462-1.143
							c-0.212,0.035,0.187,0.46,0.104,0.392c-0.572-0.56-0.229-1.073-0.258-1.763c-0.106,0.005-0.303,0.104-0.556-0.049
							c0.214-0.01,0.245-0.205,0.48-0.025c-0.005-0.232-0.236-0.417-0.379-0.572c0.052,0.473-0.34-0.076-0.478-0.125
							c-0.046-0.244,0.215,0.006,0.318,0.125c-0.013-0.203,0.2-0.508-0.123-0.521c0.206-0.066,0.69,0.332,0.872,0.618l-0.05-0.223
							c0.159,0.107,0.14,0.145,0.193,0.366c0.071-0.269,0.25-0.312,0.409-0.321c-0.019,0.037-0.053,0.004-0.071,0.041
							c0.013,0.184,0.119,0.285,0.208,0.203c0.322,0.029,0.073-0.289,0.167-0.447L7.893,21.09c-0.385-0.173-0.773-0.369-1.15-0.597
							c-0.209-0.368-0.035-0.603,0.044-0.921l-0.256-0.036c-0.043-0.354-0.003-0.69,0.333-0.515
							c-0.079,0.023-0.056,0.065-0.055,0.143c0.035,0.004,0.062,0.018,0.084,0.035l0.045,0.01l-0.222-0.591
							c0.431,0.569,0.446-0.024,0.892,0.028c-0.075-0.187-0.133-0.377-0.196-0.57C7.302,18.445,7.2,18.1,7.132,17.97
							c0.241-0.047-0.021-0.483,0.017-0.698l0.05,0.016c0.089-0.195,0.071-0.532,0.028-0.78c-0.082,0.007-0.461-0.344-0.675-0.534
							c-0.143,0.433-0.208,0.162-0.366,0.181c0.017-0.045,0.032-0.13,0.001-0.143c-0.061-0.073-0.103,0.079-0.185,0.083
							c0.065,0.505,0.085,1.01,0.426,1.205c0.158-0.142-0.143-0.251-0.035-0.412c0.222,0.244,0.168,0.537,0.178,0.928L6.37,17.953
							l0.14,0.389c-0.119-0.156-0.332-0.039-0.395-0.464c-0.196,0.064,0.071,0.422,0.027,0.687l0.286,0.104
							c-0.158-0.036-0.116,0.524-0.372,0.154c-0.104-0.209-0.191-0.421-0.283-0.64l-0.171,0.2c-0.031-0.188-0.066-0.379-0.085-0.569
							l0.145,0.129c-0.208-0.912,0.522-0.271,0.221-1.175c-0.311-0.298-0.333-0.624-0.175-1.175
							c0.021,0.416,0.225,0.072,0.395,0.247c0.184-0.382-0.053-0.554-0.143-0.792c0.19-0.071,0.342-0.115,0.253,0.236
							c0.352,0.108,0.02-0.479,0.401-0.434c0.269-1.111-0.959-1.283,0.015-2.481l0.117,0.109c0.195-0.916,0.614-1.299,0.971-2.07
							c0.228-0.116,0.464-0.218,0.692-0.318c-0.04,0.155-0.022,0.63,0.232,0.591c-0.495,0.028-0.563,0.381-0.908,0.565
							c0.07,0.081,0.202-0.001,0.285-0.019c-0.103,0.17-0.307,0.171-0.377,0.438c0.075,0.024,0.303-0.177,0.237,0.034L7.5,11.907
							c-0.12,0.483,0.41,0.46,0.08,0.914c-0.156-0.175-0.35-0.499-0.302-0.726c-0.157,0.219,0.04-0.373-0.181-0.212
							c0.123,0.484-0.19,0.545-0.19,1.094c-0.02-0.071-0.072-0.108-0.044-0.232c-0.133,0.212-0.265,0.428-0.384,0.651
							c0.229-0.114,0.004,0.646,0.297,0.656c0.335-0.693,0.102-0.541,0.565-1.292c-0.033,0.254,0.109,0.643,0.312,0.861
							c-0.012,0.003-0.024,0.011-0.037,0.034c0.217,0.207,0.328,0.11,0.776,0.271c-0.2-0.446,0.144-0.569,0.139-1.024
							C8.33,12.719,8.12,12.99,8.105,13.216c-0.009-0.14-0.007-0.278-0.007-0.419l0.078,0.118c0.156-0.284,0.328-0.558,0.506-0.824
							c-0.077,0.166,0.032,0.293,0.09,0.427c0.065-0.103,0.178-0.178,0.308-0.249c-0.23-0.098-0.376-0.198-0.312-0.3
							c0.359-0.508,0.748-0.656,1.102-0.664l0.025-0.065c-0.27-0.071-0.113-0.611-0.188-0.93c0.197,0.176,0.33-0.14,0.546-0.183
							c-0.161-0.273-0.552-0.465-0.893-0.45c-0.08,0.516,0.051,0.371,0.228,0.776c-0.072,0.227-0.138,0.457-0.192,0.69l-0.11-0.262
							c-0.29,0.214-0.194,0.664-0.445,0.472c-0.081-0.269,0.197-0.445,0.133-0.715l-0.229,0.124
							c-0.007-0.518,0.356-0.002,0.489-0.52c-0.323-0.021,0.011-0.047,0.007-0.328c-0.259,0.016-0.484,0.749-0.756,0.361
							c0.006-0.355,0.967-0.38,0.86-0.933l0.027,0.047C9.768,9.046,9.715,8.737,9.75,8.48c0.263-0.054,0.359-0.413,0.542-0.589
							l0.081,0.105l0.236-0.263c0.019,0.288-0.321,0.252-0.526,0.479l0.191,0.159c-0.452,0.01-0.317,0.498-0.343,0.824
							c0.11-0.424,0.803-0.671,0.565-1.093l0.34,0.043l0.032-0.139c0.253,0.04,0.287,0.377,0.075,0.624
							c-0.083-0.011-0.125-0.016-0.145-0.066c-0.043,0.187-0.028,0.409-0.324,0.619l0.052-0.229
							c-0.348,0.295-0.563,0.668-0.488,0.939l1.437-1.177c-0.206-0.547-0.209-0.93-0.426-1.406c0.303-0.344,0.802-0.728,1.234-0.753
							l0.018,0.106c0.188-0.048,0.331-0.146,0.433-0.267c0.237,0.032,0.002,0.305,0.158,0.308c0.157-0.148,0.324-0.283,0.492-0.422
							c0.056,0.229-0.415,0.443-0.624,0.577c0.032-0.039,0.098-0.116,0.057-0.13c-0.311,0.043-0.57,0.657-0.85,0.434
							c-0.09,0.126,0.115-0.369-0.304-0.123c-0.348,0.069-0.264,0.384-0.231,0.486c0.069,0.106,0.514-0.125,0.456,0.104
							c0.193-0.143,0.185-0.346,0.521-0.389c-0.206,0.131-0.33,0.534-0.548,0.43c-0.256,0.469,0.175,0.934,0.355,0.845
							c-0.158-0.134,0.552-0.64-0.082-0.536c0.089-0.358,0.519-0.62,0.771-0.92l0.008,0.052c0.125-0.085,0.247-0.177,0.376-0.257
							c-0.03,0.088-0.125,0.202-0.07,0.322c0.13-0.198,0.272-0.386,0.417-0.583c-0.229,0.361,0.266,0.063,0.454,0.109
							c-0.014-0.212,0.169-0.442-0.095-0.463c-0.305-0.036-0.106,0.16-0.326,0.265l0.206-0.424l0.04,0.018l0.109-0.321
							c0.468-0.141,0.003,0.639,0.502,0.2l-0.188-0.312c0.721-0.192,1.7,0.01,2.165-0.218c-0.11,0.219-0.112,0.548,0.094,0.714
							c-0.21-0.03-0.618,0.049-0.895,0.153c-0.074-0.049,0.273-0.496,0.616-0.472c-0.269-0.552-0.74,0.501-0.904-0.06
							c-0.889,0.022-0.448,0.705-1.227,0.604c0.083,0.25-0.142,0.193-0.091,0.423c0.334,0.318,0.856-0.324,1.335-0.292
							c-0.037,0.03-0.111,0.092-0.114,0.145c0.321-0.009,0.432-0.086,0.626-0.233l-0.034-0.024c0.33-0.328,0.274,0.148,0.509,0.223
							c0.078-0.058,0.393-0.022,0.318-0.206l0.426,0.201l-0.048-0.292c0.228-0.036,0.29,0.155,0.485-0.039l-0.005-0.264l-0.59-0.044
							c0.289-0.114,0.057-0.259,0.386-0.341c-0.349,0.316,0.274,0.124,0.319,0.371l0.235-0.155l-0.061,0.072
							c0.19,0.132,0.223-0.107,0.444-0.069c-0.259-0.148-0.443-0.328-0.771-0.126C17.789,5.576,18.285,5.4,18.41,5.4
							c0.267-0.104,0.445,0.1,0.686,0.15c-0.471,0.078,0.105,0.791-0.779,0.577c0.017-0.05,0.09-0.037,0.117-0.005
							c-0.117-0.345-0.543,0.023-0.723,0.158c0.057,0.192-0.135,0.246,0.198,0.343c-0.116-0.118,0.272-0.448,0.595-0.274
							L18.443,6.76c0.148,0.021,0.298,0.036,0.445,0.066l-0.043,0.017c0.146,0.279,0.479-0.021,0.766,0.18
							c0.24-0.131,1.062,0.158,0.783-0.341c0.225,0.316,0.537,0.042,0.859,0.08c-0.111-0.089-0.223-0.183-0.34-0.266
							c0.537-0.167,0.348-0.018,0.861-0.358c0.004,0.121,0.058,0.237-0.053,0.326c0.619,0.212,1.401,0.688,1.895,0.576
							c0.404,0.241,0.221,0.688,0.852,0.867c0.143,0.027,0.131-0.387,0.415-0.042c0.003,0.04-0.507,0.018-0.106,0.262
							c0.469-0.064,0.518,0.604,1.018,0.678c0.1,0.235,0.409,0.482,0.176,0.604c-0.212-0.292-0.635-0.579-0.769-0.533
							c0.136-0.087-0.104-0.272,0.176-0.199c-0.313-0.485-0.366-0.101-0.685-0.486c-0.084,0.065,0.039,0.369,0.174,0.358
							c-0.204,0.269-0.854-0.398-0.748,0.177c0.371,0.296,0.934-0.175,1.044,0.384c-0.265,0.049-0.369-0.255-0.756-0.096
							l0.185,0.318l0.352-0.038l-0.045,0.03c0.252,0.633,0.658,0.099,1.19,0.383c-0.063-0.41,0.481-0.361,0.404-0.651
							c0.317,0.261,0.487,0.516,0.229,0.748c-0.705-0.346-0.3,0.205-0.998-0.024c-0.017,0.161-0.455,0.253-0.229,0.542
							c0.464,0.131,0.12-0.291,0.493-0.063c-0.006,0.039-0.012,0.079-0.059,0.102c0.262,0.027,0.098,0.211,0.402,0.262l-0.089,0.002
							c0.022,0.353,0.385,0.101,0.36,0.438c0.145-0.235,0.27,0.009,0.49,0.048c-0.07-0.268,0.139-0.609-0.223-1.015
							c-0.196,0.082-0.258,0.183-0.473,0.085l0.24,0.239c-0.074-0.034-0.148-0.042-0.224-0.066l-0.133-0.313
							c0.379,0.215,0.418-0.069,0.696-0.069c0.186,0.359,0.248,0.22,0.353,0.455c-0.24,0.16,0.036,0.905,0.091,1.368
							c-0.025-0.063-0.078-0.13-0.097-0.174c-0.325-0.158-0.095,0.31-0.162,0.361l0.237,0.117c-0.037-0.026-0.127-0.041-0.115,0.062
							c0.197,0.23,0.445,0.076,0.637,0.327c-0.137,0.091-0.473-0.019-0.464,0.185c-0.097,0.124-0.349,0.46-0.067,0.744
							c0.07-0.001,0.142,0.077,0.207,0.173c-0.015-0.011-0.027-0.027-0.041-0.03l-0.074,0.299c-0.334-0.093-0.034-0.451-0.381-0.531
							l-0.25,0.094c-0.063-0.147-0.267-0.288-0.433-0.31c0.067,0.23,0.153,0.242,0.312,0.462c-0.138,0.101-0.326-0.014-0.354-0.03
							l0.152-0.028c0.062-0.38-0.428-0.308-0.572-0.654c-0.02-0.055,0.016-0.035,0.064-0.049c-0.371-0.131-0.246-0.577-0.697-0.622
							l0.17-0.003c-0.207-0.104-0.655-0.254-1.088-0.359l-0.078,0.067c-0.02,0.071-0.105-0.034-0.127-0.113h0.001l-0.579-0.116
							c-0.012,0.077-0.009,0.153,0.027,0.208c0.125-0.05,0.271,0.252,0.442,0.032c-0.019,0.219,0.314,0.248,0.31,0.4
							c0.007-0.271,0.289-0.055,0.432-0.116c-0.091,0.161,0.202,0.24-0.005,0.358c-0.024,0.07,0.067-0.177-0.101-0.16
							c-0.299-0.037,0.078,0.425-0.244,0.337c0.33,0.168,0.505,0.573,0.858,0.772l-0.015-0.217c0.054,0.15,0.265,0.459,0.178,0.533
							c-0.079-0.09-0.135-0.213-0.246-0.319c-0.23,0.118,0.161,0.31,0.025,0.397c0.193,0.06,0.38,0.131,0.574,0.206l-0.064-0.181
							c0.198,0.045,0.184,0.497,0.237,0.788c-0.394-0.039-0.157-0.416-0.419-0.643c-0.215-0.142-0.264,0.264-0.426,0.115
							c-0.056,0.083,0.008,0.193,0.117,0.217l-0.033,0.098c-0.363-0.038-0.463-0.413-0.828-0.499
							c0.041,0.002,0.082,0.001,0.119-0.01c0.02-0.227-0.084-0.403-0.262-0.512c-0.033,0.139,0.047,0.133,0.109,0.162
							c-0.063,0.047-0.189-0.082-0.301-0.087c0.011,0.194-0.146,0.131-0.135,0.248c-0.125-0.047-0.146-0.133-0.195-0.258
							c0.063-0.125,0.175-0.051,0.301-0.153c-0.162-0.054,0.121-0.34-0.159-0.394c0.115,0.256-0.327,0.156-0.464,0.158l0.018,0.042
							c-0.197,0.053-0.244,0.009-0.149-0.146c0.132,0.027,0.149,0.146,0.282,0c-0.049-0.053-0.104-0.102-0.2-0.124l0.155-0.035
							c-0.092-0.08-0.174-0.167-0.27-0.242c-0.165,0.075-0.402,0.176-0.611,0.321c0.057-0.166-0.119-0.148-0.211-0.156l0.074-0.028
							c-0.004-0.209-0.335-0.331-0.449-0.225c-0.013-0.194,1.213-0.229,0.516-0.64c-0.242-0.188-0.441,0.262-0.672,0.304
							c0,0,0.037-0.035,0.043-0.069c-0.082-0.1-0.195,0.041-0.319,0.052c0.019,0.099,0.098,0.163,0.166,0.125
							c-0.146,0.143-0.19-0.158-0.356-0.07c0.268-0.198-0.13-0.225,0.031-0.312c-0.107-0.297-0.466-0.205-0.669-0.048
							c0.019-0.419-0.271-0.069-0.44-0.326c0.033,0.025,0.123-0.002,0.158,0.057c0.234-0.174-0.209-0.222,0.094-0.347
							c-0.063,0.018-0.051,0.121,0.012,0.104c0.095,0.005,0.217-0.056,0.24-0.169c-0.039-0.101-0.084-0.193-0.131-0.291l0.1-0.025
							c-0.074-0.136-0.151-0.282-0.238-0.414c-0.025,0.043-0.013,0.113-0.007,0.147c-0.365-0.273-0.894-0.232-1.253-0.325
							c-0.172,0.668-0.932,0.191-1.221,0.639c0.069-0.203,0.117-0.557,0.066-0.702c0.064-0.029,0.213-0.306,0.372-0.244
							c0.022,0.112,0.203,0.255,0.073,0.374c0.427-0.047-0.035-0.31,0.105-0.56c-0.51,0.038-0.79,0.456-1.062,0.643l-0.014-0.082
							l-0.203,0.173c0.181,0.032,0.202,0.422-0.024,0.31l0.024-0.023c-0.145-0.153-0.377,0.08-0.568,0.091l-0.078,0.252
							c-0.186,0.017-0.3-0.397-0.43-0.624c-0.326,0.059-0.397,0.453-0.52,0.723c-0.156-0.146-0.607,0.009-0.469-0.299
							c-0.206,0.275,0.302,1.129-0.35,0.858l0.016-0.217c-0.392,0.25-0.671,0.907-0.935,0.889c-0.284-0.613-0.86-0.121-1.375-0.478
							c0.121,0.083,0.022,0.256,0.06,0.328c-0.084-0.021-0.185-0.017-0.135,0.126c0.223-0.06,0.398,0.532,0.453,0.099
							c0.188,0.429,0.312,0.803,0.081,1.066l-0.208-0.162l0.242-0.178c-0.171-0.102-0.061-0.207-0.087-0.313
							c-0.477,0.341-0.427-0.462-0.78,0.038c0.103,0.15,0.068,0.078,0.032,0.245c0.036-0.065-0.103-0.183-0.178-0.085l0.106,0.213
							c-0.488-0.064-0.027-0.458-0.387-0.482c-0.029-0.328,0.181-0.751-0.13-0.902c-0.38,0.277,0.247,0.695-0.128,0.961l-0.145-0.04
							c-0.004,0.187,0.179,0.332,0.254,0.474c-0.074-0.037-0.147-0.038-0.215,0.036c0.163,0.389,0.15,0.565,0.384,0.919
							c0.018-0.639,0.441-0.303,0.545-0.917c0.035,0.137-0.112,0.522,0.197,0.724l-0.226-0.137c0.025,0.227,0.067,0.441-0.106,0.602
							l-0.075-0.188c0.039,0.337-0.578,0.307-0.252,0.689c0.049-0.07,0.069-0.134,0.05-0.197c0.049,0.185-0.032,0.354-0.127,0.499
							c0.11,0.153,0.215,0.297,0.332,0.437c-0.126-0.035-0.181,0.167-0.361,0.022c-0.257,0.198,0.121,0.392,0.159,0.53
							c-0.312,0.202-0.093-0.226-0.44-0.319c-0.193,0.331-0.11,0.741,0.116,0.944c0.054-0.069,0.106-0.099,0.168-0.092
							c-0.086,0.005-0.069,0.145-0.072,0.221l0.169,0.056c-0.12,0.123-0.22,0.109-0.346-0.005c-0.042,0.129,0.3,0.268,0.053,0.403
							c-0.217-0.209-0.03-0.488-0.154-0.604c0.161,0.449-0.54,0.472-0.271,1.068c-0.081,0.017-0.253-0.071-0.24,0.048
							c0.098,0.267,0.36,0.028,0.56,0.087c-0.134-0.184-0.036-0.292,0.172-0.418l0.143,0.04c-0.07,0.013-0.069,0.133-0.132,0.175
							h0.286c-0.312,0.016-0.529,0.245-0.387,0.382c0.198-0.188,0.197-0.144,0.545-0.233c0.36,0.14-0.293,0.281,0.102,0.435
							c-0.105,0.007-0.214-0.176-0.257,0.01c0.02,0.144,0.253,0.071,0.35,0.142c-0.277-0.041-0.46,0.031-0.792-0.024
							c-0.085-0.265-0.016-0.106-0.179-0.356l-0.176,0.27c-0.085-0.232-0.327-0.128-0.429-0.133
							c-0.185,0.488,0.45,0.251,0.441,0.525c0.203,0.084-0.019-0.252,0.208-0.101c0.017,0.248,0.178,0.017,0.357,0.242l-0.127-0.011
							c-0.126,0.123,0.077,0.148,0.134,0.229c0.107,0.066,0.829-0.375,0.968-0.037c-0.075,0.01-0.121,0.02-0.149,0.03
							c-0.727,0.142-1.468,0.237-2.218,0.29l0.506,1.695c-0.303,0.349-0.53-0.232-0.68-0.115c-0.022-0.103-0.037-0.206-0.051-0.311
							c0.166-0.056,0.326,0.534,0.492,0.151c-0.346-0.405-0.239-0.688-0.751-1.03c-0.359,0.297,0.292,0.594,0.131,1.021
							c-0.032-0.141-0.126-0.228-0.227-0.312c0.072,0.313,0.164,0.648,0.286,1.001l0.132,0.021c-0.084-0.234-0.118-0.405-0.117-0.43
							c0.109,0.31,0.462,0.418,0.737,0.272l-0.017-0.052l0.138,0.044L11.181,21.864z M26.432,19.379
							c0.024,0.025,0.055,0.049,0.096,0.069C26.484,19.427,26.453,19.432,26.432,19.379z M8.895,16.087
							c-0.112,0.44-0.216,0.896-0.256,1.338c0.636-0.8,1.141-1.195,1.08-0.032l0.047,0.077c0.071-0.155,0.087-0.415,0.058-0.665
							c-0.216-0.194-0.932-0.997-0.991-1.016c-0.188,0.052-0.016,0.198-0.086,0.335L8.895,16.087z M9.969,15.943
							c0.108-0.211-0.036-0.186-0.151-0.245l0.003,0.249C9.857,15.922,9.903,15.915,9.969,15.943z M9.693,15.688
							c-0.007,0.025-0.017,0.047-0.036,0.055L9.693,15.688z M9.869,20.275l-0.015-0.021l0.029,0.174
							C9.893,20.398,9.894,20.354,9.869,20.275z M10.013,19.725l-0.234,0.01l0.019,0.162C9.892,19.85,9.973,19.805,10.013,19.725z
							 M10.466,18.163c-0.278-0.06-0.313-0.362-0.629-0.366c-0.082-0.016-0.108,0.052-0.128,0.129l-0.005,0.271
							c0.046-0.002,0.088,0.014,0.133,0.041c0.031-0.098,0.105-0.165,0.3-0.146c-0.399,0.275,0.322,0.175,0.243,0.425
							C10.608,18.561,10.564,18.227,10.466,18.163z M23.663,10.658L23.6,10.844l-0.238,0.01c-0.2-0.248-0.172-0.777-0.633-0.609
							c-0.063-0.157-0.021-0.372,0.002-0.555c0.056,0.046,0.104,0.093,0.136,0.146C23.908,9.844,22.898,10.564,23.663,10.658z
							 M20.4,8.438c0.041-0.011,0.065-0.058,0.065-0.058c-0.907,0.374-1.487,0.5-1.888,0.458c0.07,0.228,0.398,0.432,0.544,0.542
							l-0.164,0.246l-0.067-0.21l-0.255,0.218c0.056,0.181,0.245,0.158,0.354,0.301c0.011-0.046,0.447-0.307,0.594-0.436
							c-0.1-0.081-0.202-0.154-0.309-0.228c0.082,0.079,0.535,0.092,0.728,0.071c0.036-0.131-0.243-0.39-0.333-0.115
							c-0.006-0.198,0.363-0.135,0.169-0.381c0.323-0.155,0.735,0.133,0.902,0.284L20.68,9.452c0.168,0.189,0.266-0.325,0.459-0.061
							c-0.33-0.044-0.068,0.354-0.316,0.296c0.035,0.143-0.108,0.325,0.126,0.383c0.346-0.324,0.136,0.338,0.454,0.067
							c0.062,0.175-0.227,0.182-0.027,0.336c0.352-0.092,0.411-0.231,0.568-0.508c-0.219-0.21-0.461,0.236-0.631,0.073
							c0.205-0.104,0.42-0.207,0.642-0.299c-0.044-0.109-0.103-0.14-0.161-0.144c0.102,0.011,0.21-0.028,0.322-0.092l0.173-0.09
							c-0.248-0.137-0.479-0.235-0.466-0.38l0.098-0.124c-0.038-0.174-0.242-0.133-0.354-0.058
							c-0.248-0.086-0.562,0.045-0.551-0.164l0.137-0.101C20.832,8.526,20.792,8.538,20.4,8.438z M10.737,11.479
							c0.571,0.188,1.048,0.336,1.575-0.319l-0.021,0.074c0.528-0.028,0.32-0.917,0.992-0.917c-0.082,0.314-0.088,0.296,0.005,0.837
							l0.102-0.281c0.125,0.283,0.234,0.014,0.393-0.082l0.078,0.389c-0.148-0.027-0.392,0.114-0.333,0.175
							c0.025-0.076-0.579-0.125-0.69,0.124c0.184,0.16,0.49-0.233,0.583,0.214c0.033-0.254,0.211-0.072,0.308-0.261
							c-0.042,0.247,0.167,0.293,0.175,0.514c0.062-0.082,0.12-0.17,0.186-0.249c0.047,0.059-0.228,0.408,0.144,0.497
							c0.008-0.178,0.353-0.214,0.207-0.438l0.051,0.063c0.212-0.067-0.124-0.365,0.188-0.383c-0.066-0.116-0.159-0.167-0.229-0.088
							c-0.039,0.096,0.046,0.253-0.071,0.377c-0.181-0.129,0.184-0.093-0.108-0.317c-0.151-0.11-0.292,0.391-0.418-0.001
							l0.225-0.091c-0.147-0.223,0.009-0.307-0.11-0.481c0.079-0.167,0.352,0.01,0.372-0.263c-0.028-0.18-0.287-0.399,0.017-0.412
							c0.371,0.242,0.864-0.075,1.063-0.202c0.041-0.078,0.084-0.153,0.129-0.226c-0.072-0.152-0.354,0.158-0.308-0.086
							c0.092-0.061,0.186-0.118,0.282-0.171l0.01,0.104c0.108-0.011,0.176-0.153,0.254-0.236c-0.042,0.21-0.282,0.214-0.15,0.458
							c0.157,0.006,0.206,0.091,0.318,0.005C15.93,9.832,15.914,9.865,15.929,9.9c0.309,0.037,0.187-0.373,0.238-0.48
							c0.215-0.425-0.388-0.239-0.432-0.517c0.292-0.138,0.594-0.265,0.906-0.368c-0.066,0.102-0.13,0.204-0.078,0.309
							c0.25,0.085,0.045,0.209,0.356,0.14c-0.081-0.367,0.368-0.293,0.583-0.521c0.122,0.146,0.145,0.174-0.09,0.197
							c0.05,0.243,0.35,0.12,0.463,0.142c0.062-0.062,0.17-0.1,0.24-0.156c-0.096-0.119-0.063-0.275,0.15-0.381l0.014-0.05
							c-0.344-0.07-0.929-0.302-1.125-0.021l0.049-0.128c-0.455-0.163-0.809,0.565-1.085,0.162c-0.024-0.182-0.091-0.022-0.146-0.28
							c-0.087,0.089-0.172,0.182-0.253,0.278l0.032-0.133c-0.166,0.07-0.333,0.13-0.494,0.209L15.256,8.25
							c-0.167,0.305-0.276,0.554-0.354,0.759c0.042,0.107,0.069,0.134,0.029,0.241c-0.051,0.081-0.101,0.11-0.154,0.119V9.37V9.369
							c-0.122,0.018-0.263-0.1-0.43-0.098l0.413-0.216c-0.04-0.193-0.153-0.371-0.429-0.395c0.086-0.047,0.065-0.204-0.058-0.173
							c0.007,0.052-0.246,0.248-0.071,0.339c-0.37,0.25-1.321,0.193-1.683,0.936c0.285-0.486-0.494,0.039-0.074-0.37
							c-0.518-0.001-0.098,0.454-0.436,0.673c-0.099-0.063,0.175-0.133,0.113-0.362c-0.628,0.35-0.525,1.131-1.005,1.537
							l-0.203-0.138C10.855,11.216,10.796,11.346,10.737,11.479z M10.276,12.693l-0.107,0.36l0.022-0.028l0.012,0.407
							c0.185-0.153,0.481-0.144,0.462,0.167c-0.079-0.067-0.229-0.045-0.235-0.163c-0.226,0.107-0.531,0.464-0.147,0.502
							c-0.16-0.489,0.462,0.113,0.349-0.258c0.151,0.244-0.008,0.334,0.033,0.508c-0.126-0.217-0.432-0.148-0.608,0.042
							c0.013,0.115-0.125,0.364-0.088,0.554c0.233,0.011,0.311,0.184,0.45-0.049c0.023,0.11,0.024,0.263-0.131,0.393
							c-0.019-0.074-0.014-0.195-0.094-0.211c-0.229,0.047-0.256,0.178-0.362,0.226l-0.007,0.18
							c0.022-0.012,0.051-0.021,0.085-0.023l0.15,0.231c-0.047-0.271,0.127-0.088,0.255-0.056c-0.255-0.067-0.069,0.147-0.08,0.229
							l0.313-0.115c0.114,0.111-0.262,0.253,0.019,0.264c0.182-0.339,0.172-0.479,0.186-0.825l-0.245,0.07
							c-0.032-0.418,0.421-0.118,0.553-0.509c-0.126-0.239,0.234-0.581-0.118-0.761c0.087,0.098,0.434-0.08,0.347-0.292
							c-0.243-0.317-0.005-0.789-0.227-0.743c-0.084,0.118-0.006,0.382-0.267,0.364l0.074-0.28l-0.263,0.06
							C10.719,12.892,10.549,12.8,10.276,12.693z M7.01,19.602l-0.002,0.016l-0.001-0.016H7.01z"/>
						<path fill="#00AEEF" d="M26.902,13.607c0.123,0.043,0.186,0.257,0.351,0.145C27.063,13.834,27.07,13.396,26.902,13.607z"/>
						<path fill="#00AEEF" d="M26.811,13.926c0.051-0.005,0.123-0.045,0.166,0.043l-0.147-0.228L26.811,13.926z"/>
						<path fill="#00AEEF" d="M25.541,14.677c0.186,0.054,0.295,0.098,0.341,0.277c-0.475,0.222-0.233-0.24-0.716-0.148
							c0.055,0.307,0.518,0.262,0.634,0.518C25.98,15.139,25.916,14.546,25.541,14.677z"/>
						<polygon fill="#00AEEF" points="24.874,14.779 25.045,14.896 25.068,14.869 24.896,14.752 						"/>
						<path fill="#00AEEF" d="M25.643,8.38c0.084-0.141-0.152-0.124-0.248-0.149C25.445,8.286,25.501,8.382,25.643,8.38z"/>
						<path fill="#00AEEF" d="M26.695,25.591c0.455-0.542,0.859-1.122,1.205-1.729C27.591,24.38,27.279,24.842,26.695,25.591z"/>
						<path fill="#00AEEF" d="M19.217,6.826c0.521-0.101,0.799-0.344,1.35-0.303c-0.659-0.462-1.002,0.337-1.545-0.042L19.217,6.826
							z"/>
						<path fill="#00AEEF" d="M19.536,5.556c0.058,0.31-0.468,0.316-0.402,0.548c0.372-0.045,0.198-0.279,0.534-0.212L19.536,5.556z
							"/>
						<polygon fill="#00AEEF" points="20.436,10.907 20.292,11.026 20.385,10.996 						"/>
						<polygon fill="#00AEEF" points="16.966,5.825 17.021,5.749 16.728,5.688 						"/>
						<path fill="#00AEEF" d="M17.075,5.672L17.02,5.748L17.075,5.672z"/>
						<polygon fill="#00AEEF" points="20.114,11.49 20.221,11.595 20.328,11.483 						"/>
						<path fill="#00AEEF" d="M19.154,9.611l0.164-0.078C19.286,9.548,19.092,9.397,19.154,9.611z"/>
						<polygon fill="#00AEEF" points="15.247,6.01 15.011,6.198 15.046,6.22 15.281,6.032 						"/>
						<path fill="#00AEEF" d="M17.994,10.405c0.1,0.232-0.264,0.07-0.065,0.273C18.092,10.638,18.021,10.517,17.994,10.405z"/>
						<path fill="#00AEEF" d="M15.543,9.237c-0.026,0.009-0.05,0.026-0.068,0.06C15.503,9.277,15.525,9.256,15.543,9.237z"/>
						<path fill="#00AEEF" d="M15.543,9.237c0.084-0.029,0.193,0.029,0.232-0.051C15.638,9.113,15.612,9.168,15.543,9.237z"/>
						<path fill="#00AEEF" d="M14.628,9.66l0.08-0.018c-0.025,0.139,0.002,0.107,0.029-0.007c0.073-0.042,0.039-0.108,0.027-0.159
							l0.012-0.105l-0.03,0.107C14.625,9.531,14.557,9.574,14.628,9.66z"/>
						<path fill="#00AEEF" d="M8.655,9.384c0.347-0.269,0.451-0.32,0.571-0.181c0.313-0.25,0.044-0.42,0.163-0.649
							C9.094,8.91,8.964,8.92,8.655,9.384z"/>
						<path fill="#00AEEF" d="M9.389,8.554l0.105-0.123C9.442,8.474,9.41,8.513,9.389,8.554z"/>
						<polygon fill="#00AEEF" points="16.31,11.143 16.266,11.452 16.301,11.399 						"/>
						<path fill="#00AEEF" d="M8.185,9.829c0.059-0.056,0.131-0.163,0.22-0.174C8.274,9.523,8.126,9.886,8.185,9.829z"/>
						<path fill="#00AEEF" d="M11.828,11.072c0.099,0.054,0.194-0.129,0.282-0.153C12.013,10.98,11.703,10.806,11.828,11.072z"/>
						<path fill="#00AEEF" d="M8.133,11.249c0.05-0.059,0.217-0.09,0.318,0.032C8.433,11.143,8.241,10.843,8.133,11.249z"/>
						<polygon fill="#00AEEF" points="11.42,11.468 11.496,11.475 11.548,11.237 						"/>
						<path fill="#00AEEF" d="M13.823,12.843c-0.022-0.279-0.576-0.178-0.478-0.525c-0.455,0.132,0.237,0.194,0.005,0.384
							C13.521,12.625,13.774,12.77,13.823,12.843z"/>
						<path fill="#00AEEF" d="M13.35,12.702c-0.026,0.01-0.049,0.025-0.07,0.046C13.31,12.731,13.332,12.716,13.35,12.702z"/>
						<path fill="#00AEEF" d="M10.707,14.285c-0.01-0.038-0.025-0.068-0.042-0.096C10.673,14.219,10.686,14.25,10.707,14.285z"/>
						<path fill="#00AEEF" d="M12.896,13.529c-0.04-0.136-0.072-0.272-0.101-0.411c0.052,0.273-0.204,0.636,0.087,0.79
							c0.126-0.083,0.155-0.26,0.081-0.402L12.896,13.529z"/>
						<path fill="#00AEEF" d="M5.928,15.307l-0.089-0.235l-0.084,0.261C5.815,15.265,6.027,15.44,5.928,15.307z"/>
						<path fill="#00AEEF" d="M5.738,15.384l0.016-0.051C5.744,15.343,5.738,15.359,5.738,15.384z"/>
						<path fill="#00AEEF" d="M10.819,13.657c0.069-0.084,0.099-0.164,0.093-0.278C10.84,13.384,10.666,13.6,10.819,13.657z"/>
						<path fill="#00AEEF" d="M6.244,16.829c-0.018-0.114-0.023-0.229-0.035-0.344c0,0.125-0.004,0.25,0.002,0.374L6.244,16.829z"/>
						<polygon fill="#00AEEF" points="5.728,18.46 5.671,18.527 5.819,18.809 5.872,18.74 						"/>
						<path fill="#00AEEF" d="M12.11,16.833c0.041-0.114-0.233-0.239-0.3-0.216c-0.009,0.08-0.006,0.162-0.009,0.242
							c0.261-0.041-0.005-0.067,0.075-0.2L12.11,16.833z"/>
						<path fill="#00AEEF" d="M12.454,27.962c-0.17,0.101-0.557-0.233-0.489-0.388c0.092-0.023,0.354,0.047,0.265-0.123
							c-0.182,0.059-0.362,0.104-0.549,0.152c-0.288-0.498,0.625-0.246,0.907-0.271c-0.405-0.296-0.678-0.144-1.126-0.457
							c0.109,0.122,0.132,0.271,0.155,0.392c-0.148,0.258-0.512-0.146-0.817-0.36c0.11,0.249-0.063,0.252-0.276,0.231
							c-0.031-0.014-0.059-0.014-0.083-0.007l-0.074-0.006l0.037,0.028c-0.023,0.023-0.041,0.062-0.048,0.125
							c0.308,0.138,0.367,0.48,0.542,0.609c0.1-0.511,0.659,0.317,0.976,0.316l0.289,0.111l0.1,0.055
							c-0.005,0.059-0.064,0.102-0.264,0.097c0.171-0.004,0.594,0.243,0.622,0.087c0.331,0.162,0.667,0.313,1.012,0.444
							c0.025,0.03,0.048,0.065,0.06,0.106c0.046-0.014,0.061-0.035,0.065-0.06c1.503,0.565,3.118,0.832,4.706,0.792
							c-0.235-0.027-0.438-0.146-0.675-0.206c0.365-0.308-0.386-0.069-0.265-0.371c0.162-0.097,0.386-0.062,0.521,0.017
							c0.053-0.15-0.137-0.291-0.108-0.473c-0.537-0.211-0.677,0.512-1.231,0.334c0.046-0.18,0.232-0.315-0.126-0.338l0.096-0.027
							c-0.604,0.119-0.363-0.476-0.813-0.047l0.063-0.256c-0.292,0.144-0.788,0.021-1.071-0.031l0.031-0.043
							c-0.858,0.033-0.453-0.065-1.34-0.293c0.167-0.033,0.337-0.08,0.501-0.125c-0.236-0.229-0.428,0.049-0.62-0.076
							c0.035-0.039,0.069-0.234,0.276-0.194c-0.389,0.001-0.784-0.021-1.184-0.063C12.188,27.688,12.47,27.843,12.454,27.962z"/>
						<path fill="#00AEEF" d="M11.461,26.877c-0.04-0.045-0.09-0.089-0.159-0.126C11.358,26.802,11.411,26.841,11.461,26.877z"/>
						<path fill="#00AEEF" d="M18.797,29.829l-0.336,0.012C18.564,29.854,18.674,29.855,18.797,29.829z"/>
						<path fill="#00AEEF" d="M9.847,26.298c0.053,0.238-0.24,0.035-0.336,0.083c0.176,0.169,0.357,0.334,0.545,0.49
							c0.064-0.079,0.192-0.118,0.241-0.199C10.146,26.55,9.992,26.43,9.847,26.298z"/>
						<path fill="#00AEEF" d="M10.095,27.157c0.063-0.037,0.165-0.038,0.271-0.03l-0.31-0.256
							C10.008,26.932,9.997,27.014,10.095,27.157z"/>
						<polygon fill="#00AEEF" points="13.525,22.958 13.588,23.001 13.728,23.01 						"/>
						<path fill="#00AEEF" d="M14.263,24.029c-0.005-0.178-0.214-0.18-0.289-0.18C14.154,23.959,14.044,23.964,14.263,24.029z"/>
						<polygon fill="#00AEEF" points="14.934,22.504 15.114,22.516 15.117,22.482 						"/>
						<path fill="#00AEEF" d="M21.005,28.465l0.138-0.053C21.078,28.432,21.037,28.445,21.005,28.465z"/>
						<path fill="#00AEEF" d="M18.475,29.052c0.743,0.277-0.477,0.259-0.248,0.63l0.412-0.135l-0.033,0.104
							c0.17-0.015,0.338-0.032,0.506-0.06c-0.116-0.166-0.192-0.171-0.182-0.354c0.662,0.019,0.221,0.209,0.736,0.384
							c0.251-0.041,0.501-0.085,0.748-0.146l-0.053,0.065c0.063-0.017,0.088-0.043,0.104-0.076c0.833-0.19,1.644-0.47,2.412-0.827
							c0.365-0.307-0.356-0.209-0.151-0.582c-0.475,0.202-1.244,0.245-1.188,0.6c0.003-0.053,0.006-0.157-0.104-0.172l-0.209,0.371
							l0.305,0.014c-0.207,0.393-1.227,0.527-1.43,0.365c0.539-0.203,0.19-0.488,0.979-0.472c-0.058-0.081-0.228-0.208-0.076-0.296
							C20.168,28.777,19.377,28.719,18.475,29.052z"/>
						<path fill="#00AEEF" d="M26.396,25.49l0.019,0.027C26.412,25.495,26.407,25.48,26.396,25.49z"/>
						<path fill="#00AEEF" d="M26.152,25.663c-0.021,0.185-0.045,0.372-0.077,0.558c0.168-0.156,0.321-0.326,0.479-0.49
							l-0.142-0.211c0.004,0.086-0.081,0.342-0.215,0.334L26.152,25.663z"/>
						<path fill="#00AEEF" d="M25.82,26.718c0.213-0.312-0.004-0.522-0.229-0.503c0.15-0.311,0.335,0.131,0.296-0.248
							c-0.148-0.154-0.354,0.193-0.402,0.279L25.82,26.718z"/>
						<polygon fill="#00AEEF" points="23.514,28.018 23.548,27.861 23.314,27.943 						"/>
						<path fill="#00AEEF" d="M23.548,27.861l0.231-0.082c-0.057-0.071-0.113-0.143-0.178-0.18L23.548,27.861z"/>
						<path fill="#00AEEF" d="M24.38,27.538c0.101-0.035,0.206-0.084,0.328-0.152L24.38,27.538z"/>
						<path fill="#00AEEF" d="M24.1,27.613l0.026,0.029l0.254-0.104C24.281,27.568,24.189,27.592,24.1,27.613z"/>
						<path fill="#00AEEF" d="M23.779,27.779c0.133,0.166,0.279,0.336,0.566,0.104l-0.221-0.24
							C24.01,27.688,23.896,27.74,23.779,27.779z"/>
						<polygon fill="#00AEEF" points="15.847,23.323 16.028,23.27 16.025,23.234 15.844,23.288 						"/>
						<path fill="#00AEEF" d="M16.63,23.775c0.046-0.027,0.083-0.059,0.118-0.09C16.704,23.698,16.665,23.725,16.63,23.775z"/>
						<path fill="#00AEEF" d="M17.485,22.506c0.12,0.225-0.247,0.247,0.021,0.372c0.004,0.192-0.173,0.431-0.3,0.306
							c0.043-0.178,0.153-0.091,0.1-0.289c-0.125,0.19-0.136,0.043-0.153,0.318c-0.191,0.143-0.25,0.324-0.405,0.473
							c0.222-0.062,0.63,0.285,0.931-0.045c0.17-0.317,0.113-0.773,0.154-1.248C17.821,22.283,17.544,22.195,17.485,22.506z"/>
						<path fill="#00AEEF" d="M17.35,22.001c-0.055-0.033-0.077-0.017-0.121,0.013C17.205,22.177,17.301,22.001,17.35,22.001z"/>
						<path fill="#00AEEF" d="M19.131,25.623c0.014-0.068,0.192-0.178,0.137-0.288c-0.091,0.038-0.181,0.084-0.272,0.117
							C19.063,25.459,19.094,25.538,19.131,25.623z"/>
						<path fill="#00AEEF" d="M18.871,25.498l0.123-0.046C18.962,25.449,18.924,25.461,18.871,25.498z"/>
						<path fill="#00AEEF" d="M19.148,25.664l-0.019-0.041C19.128,25.639,19.131,25.652,19.148,25.664z"/>
						<path fill="#00AEEF" d="M25.295,27.07c0.071,0.109,0.182-0.063,0.23-0.154C25.458,26.956,25.348,26.984,25.295,27.07z"/>
						<path fill="#00AEEF" d="M29.027,21.318l0.149-0.117C29.102,21.234,29.063,21.252,29.027,21.318z"/>
						<path fill="#00AEEF" d="M26.08,18.448c-0.025-0.007-0.045-0.017-0.063-0.031C26.031,18.43,26.052,18.439,26.08,18.448z"/>
						<path fill="#00AEEF" d="M26.018,18.417c-0.1-0.086,0.101-0.295-0.063-0.394l0.05,0.015l-0.086-0.159
							C25.926,18.023,25.873,18.313,26.018,18.417z"/>
					</g>
				</g>
			</g>
		</g>
	</g>
</g>
<circle fill="#FFFFFF" cx="17.834" cy="17.668" r="8.667"/>
</svg>
